<svg xmlns="http://www.w3.org/2000/svg" viewBox="0 0 295.6 165.7" fill="currentColor"><path fill-rule="evenodd" d="M266.02 90.09 C265.96 90.06 266.42 90.18 266.48 90.15 C268.92 89.04 271.51 87.36 273.68 85.51 C276.88 82.78 279.48 80.16 281.88 76.84 C292.63 62.42 290.16 40.57 277.04 28.66 C268.56 20.60 256.74 17.19 245.12 17.27 C228.37 17.33 203.34 17.17 189.43 17.22 C179.29 17.39 162.61 16.95 156.76 17.33 C156.24 17.37 155.72 17.45 155.24 17.66 C152.33 18.93 152.64 23.07 156.27 23.33 C166.57 24.06 184.90 12.60 187.51 25.40 C187.55 25.58 187.57 25.67 187.59 25.86 C188.68 34.16 188.10 51.49 185.82 65.32 C185.30 68.43 187.00 71.53 190.10 71.50 C193.11 71.48 194.76 68.65 194.21 65.29 C192.52 54.82 191.64 33.84 191.80 28.11 C191.83 26.95 191.90 24.63 192.24 23.47 C193.09 20.58 195.42 19.44 198.19 19.32 C204.38 19.05 211.74 19.40 217.88 19.81 C241.46 21.38 277.24 24.93 277.94 54.21 C277.95 54.42 277.96 54.66 277.96 54.86 C278.08 65.96 270.66 78.76 261.02 84.02 C260.41 84.35 259.12 84.92 258.36 85.16 C244.60 89.47 180.64 87.84 159.40 87.72 C156.72 87.71 156.07 85.97 155.61 83.61 C155.40 82.52 155.31 81.37 155.14 80.38 C154.35 74.86 152.84 69.62 150.97 64.55 C130.31 8.74 39.42 0.00 4.33 51.12 C2.64 53.59 1.09 57.35 3.45 59.64 C5.46 61.74 8.99 62.34 11.44 60.62 C13.70 58.96 14.62 56.07 16.00 53.62 C19.73 46.47 23.30 40.61 27.48 36.38 C40.25 23.48 55.53 20.68 71.24 20.19 C105.15 19.12 143.53 46.86 143.97 82.84 C144.01 85.76 143.85 87.64 140.69 87.75 C140.10 87.77 135.82 87.71 135.33 87.73 C128.74 87.68 36.74 85.30 16.96 84.92 C14.37 84.87 11.85 84.55 10.66 86.54 C9.28 88.86 10.48 92.42 13.75 92.44 C31.48 92.59 35.95 91.99 82.40 91.50 C98.03 91.27 133.75 91.18 133.80 91.18 C139.83 91.26 140.56 90.85 142.82 92.48 C144.77 93.88 143.99 97.42 143.64 99.79 C137.02 137.78 97.29 165.69 60.47 158.59 C60.38 158.57 60.28 158.56 60.19 158.55 C31.18 153.68 14.50 122.34 14.39 122.11 C9.64 112.91 0.00 118.68 2.25 124.80 C2.50 125.48 2.76 126.18 3.16 126.78 C18.59 150.15 46.02 162.45 74.71 162.46 C114.19 162.16 149.67 136.04 155.48 96.85 C156.16 92.27 157.14 91.05 161.61 91.08 C177.72 91.16 245.64 91.13 257.47 94.21 C257.77 94.30 257.98 94.36 258.24 94.45 C264.76 96.51 268.08 100.35 271.01 105.32 C282.09 124.06 276.09 147.68 256.45 156.28 C253.69 157.44 248.44 158.54 245.10 159.13 C238.12 160.36 211.72 160.68 197.69 159.86 C195.53 159.73 193.09 159.20 192.29 156.95 C191.85 155.72 191.88 155.19 191.82 153.27 C191.60 145.47 193.84 115.00 193.92 113.68 C194.21 108.91 191.57 107.94 189.92 107.96 C187.74 107.99 185.66 109.49 185.89 113.68 C186.41 123.21 189.21 143.30 188.45 153.18 C188.34 154.57 188.23 155.97 187.79 156.86 C183.63 165.44 158.28 153.27 154.23 156.83 C152.51 158.35 152.77 160.90 154.33 161.79 C155.85 162.67 157.53 162.36 159.35 162.42 C162.80 162.52 181.35 162.48 190.02 162.48 C201.74 162.57 217.43 162.63 233.76 162.43 C251.22 162.22 266.52 162.10 278.07 150.10 C295.64 132.45 291.44 102.14 268.43 91.11 L266.02 90.09 Z"/></svg>